<?xml version="1.0" standalone="no"?><!DOCTYPE svg PUBLIC "-//W3C//DTD SVG 1.1//EN" "http://www.w3.org/Graphics/SVG/1.1/DTD/svg11.dtd"><svg xmlns="http://www.w3.org/2000/svg" version="1.1" width="1025.065" height="729.542" xmlns:xlink="http://www.w3.org/1999/xlink" xlink="http://www.w3.org/1999/xlink" style="position:relative;overflow:hidden;" viewBox="245.792 91.833 1025.065 729.542"><defs/><g><g width="100" height="50.333" transform="scale(1,1) translate(557.146,104.333)"><g stroke="#CFE9F7" stroke-opacity="1" stroke-width="1" stroke-dasharray="none" width="100" height="50.333" transform="scale(1,1) translate(0,0)" fill="#CFE9F7" fill-opacity="1"><rect width="100" height="50.333"/></g><g width="95" height="45.33333333333333" transform="scale(1,1) translate(2.5,2.5)"><text width="95" height="15.624999046325684" transform="scale(1,1) translate(0,14.854167143503823)" xml:space="preserve"><tspan xml:space="preserve" text-rendering="optimizeSpeed" font-size="13.88888888888889" font-weight="normal" font-style="normal" fill="#333333" opacity="1" x="12.016" text-anchor="start" y="12.5" textLength="70.96733856201172" style="font-family: Arial, Helvetica Neue, Helvetica, sans-serif;">p is empty?</tspan></text></g></g><g width="446.708" height="50.5" transform="scale(1,1) translate(383.792,154.667)"><g fill="#545454" stroke="#545454" stroke-opacity="1" transform="scale(1,1) translate(0,0)"><path fill="none" stroke-width="1" stroke-dasharray="none" d="M223.354,0 L223.354,0 M223.354,0 L223.354,0 M223.354,0 L223.354,0 M223.354,0 L0,50.5 M223.354,0 L446.708,50.5"/><g><g stroke-dasharray="none"><path d="M220.354,-3L226.354,-3L226.354,3L220.354,3z" stroke-width="0" fill="none"/></g></g></g><g stroke-width="0" stroke-dasharray="none" fill="#FFFFFF" opacity="1" width="24.649" height="17.625" transform="scale(1,1) translate(99.353,16.438)"><rect width="24.649" height="17.625"/></g><g width="22.64858627319336" height="90.5" transform="scale(1,1) translate(100.353,17.438)"><text width="22.64858627319336" height="15.624999046325684" transform="scale(1,1) translate(0,0)" xml:space="preserve"><tspan xml:space="preserve" text-rendering="optimizeSpeed" font-size="13.88888888888889" font-weight="normal" font-style="normal" fill="#333333" opacity="1" x="0" text-anchor="start" y="12.5" textLength="22.64858627319336" style="font-family: Arial, Helvetica Neue, Helvetica, sans-serif;">Yes</tspan></text></g><g stroke-width="0" stroke-dasharray="none" fill="#FFFFFF" opacity="1" width="19.748" height="17.625" transform="scale(1,1) translate(325.157,16.438)"><rect width="19.748" height="17.625"/></g><g width="17.747528076171875" height="90.5" transform="scale(1,1) translate(326.157,17.438)"><text width="17.747528076171875" height="15.624999046325684" transform="scale(1,1) translate(0,0)" xml:space="preserve"><tspan xml:space="preserve" text-rendering="optimizeSpeed" font-size="13.88888888888889" font-weight="normal" font-style="normal" fill="#333333" opacity="1" x="0" text-anchor="start" y="12.5" textLength="17.747528076171875" style="font-family: Arial, Helvetica Neue, Helvetica, sans-serif;">No</tspan></text></g></g><g width="109.167" height="55" transform="scale(1,1) translate(775.917,205.167)"><g stroke="#C1D6E8" stroke-opacity="1" stroke-width="1" stroke-dasharray="none" width="109.167" height="55" transform="scale(1,1) translate(0,0)" fill="#C1D6E8" fill-opacity="1"><rect width="109.167" height="55"/></g><g width="104.16666666666666" height="50" transform="scale(1,1) translate(2.5,2.5)"><text width="104.16666666666666" height="31.249998092651367" transform="scale(1,1) translate(0,9.375000953674316)" xml:space="preserve"><tspan xml:space="preserve" text-rendering="optimizeSpeed" font-size="13.88888888888889" font-weight="normal" font-style="normal" fill="#333333" opacity="1" x="0.007" text-anchor="start" y="12.5" textLength="100.29761505126953" style="font-family: Arial, Helvetica Neue, Helvetica, sans-serif;">p has more than</tspan><tspan xml:space="preserve" text-rendering="optimizeSpeed" font-size="13.88888888888889" font-weight="normal" font-style="normal" fill="#333333" opacity="1" x="10.04" text-anchor="start" y="28.125" textLength="84.08740234375" style="font-family: Arial, Helvetica Neue, Helvetica, sans-serif;">2 characters?</tspan></text></g></g><g width="101.312" height="50.333" transform="scale(1,1) translate(333.136,205.167)"><g stroke="#C1D6E8" stroke-opacity="1" stroke-width="1" stroke-dasharray="none" width="101.312" height="50.333" transform="scale(1,1) translate(0,0)" fill="#C1D6E8" fill-opacity="1"><rect width="101.312" height="50.333"/></g><g width="96.3119658119658" height="45.33333333333333" transform="scale(1,1) translate(2.5,2.5)"><text width="96.3119658119658" height="15.624999046325684" transform="scale(1,1) translate(0,14.854167143503823)" xml:space="preserve"><tspan xml:space="preserve" text-rendering="optimizeSpeed" font-size="13.88888888888889" font-weight="normal" font-style="normal" fill="#333333" opacity="1" x="13.062" text-anchor="start" y="12.5" textLength="70.18800354003906" style="font-family: Arial, Helvetica Neue, Helvetica, sans-serif;">s is empty?</tspan></text></g></g><g width="151" height="50.5" transform="scale(1,1) translate(308.292,255.5)"><g fill="#545454" stroke="#545454" stroke-opacity="1" transform="scale(1,1) translate(0,0)"><path fill="none" stroke-width="1" stroke-dasharray="none" d="M75.5,0 L75.5,0 M75.5,0 L75.5,0 M75.5,0 L75.5,0 M75.5,0 L0,50.5 M75.5,0 L151,50.5"/><g><g stroke-dasharray="none"><path d="M72.5,-3L78.5,-3L78.5,3L72.5,3z" stroke-width="0" fill="none"/></g></g></g><g stroke-width="0" stroke-dasharray="none" fill="#FFFFFF" opacity="1" width="24.649" height="17.625" transform="scale(1,1) translate(25.426,16.438)"><rect width="24.649" height="17.625"/></g><g width="22.64858627319336" height="90.5" transform="scale(1,1) translate(26.426,17.438)"><text width="22.64858627319336" height="15.624999046325684" transform="scale(1,1) translate(0,0)" xml:space="preserve"><tspan xml:space="preserve" text-rendering="optimizeSpeed" font-size="13.88888888888889" font-weight="normal" font-style="normal" fill="#333333" opacity="1" x="0" text-anchor="start" y="12.5" textLength="22.64858627319336" style="font-family: Arial, Helvetica Neue, Helvetica, sans-serif;">Yes</tspan></text></g><g stroke-width="0" stroke-dasharray="none" fill="#FFFFFF" opacity="1" width="19.748" height="17.625" transform="scale(1,1) translate(103.376,16.438)"><rect width="19.748" height="17.625"/></g><g width="17.747528076171875" height="90.5" transform="scale(1,1) translate(104.376,17.438)"><text width="17.747528076171875" height="15.624999046325684" transform="scale(1,1) translate(0,0)" xml:space="preserve"><tspan xml:space="preserve" text-rendering="optimizeSpeed" font-size="13.88888888888889" font-weight="normal" font-style="normal" fill="#333333" opacity="1" x="0" text-anchor="start" y="12.5" textLength="17.747528076171875" style="font-family: Arial, Helvetica Neue, Helvetica, sans-serif;">No</tspan></text></g></g><g width="0" height="50" transform="scale(1,1) translate(459.292,356.333)"><g fill="#545454" stroke="#545454" stroke-opacity="1" transform="scale(1,1) translate(0,0)"><path fill="none" stroke-width="1" stroke-dasharray="none" d="M0,0"/></g></g><g width="100" height="50.333" transform="scale(1,1) translate(409.292,306)"><g stroke="#9CB9D3" stroke-opacity="1" stroke-width="1" stroke-dasharray="none" width="100" height="50.333" transform="scale(1,1) translate(0,0)" fill="#9CB9D3" fill-opacity="1"><rect width="100" height="50.333"/></g><g width="95" height="45.33333333333333" transform="scale(1,1) translate(2.5,2.5)"><text width="95" height="15.624999046325684" transform="scale(1,1) translate(0,14.854167143503823)" xml:space="preserve"><tspan xml:space="preserve" text-rendering="optimizeSpeed" font-size="13.88888888888889" font-weight="normal" font-style="normal" fill="#333333" opacity="1" x="12.785" text-anchor="start" y="12.5" textLength="69.42900085449219" style="font-family: Arial, Helvetica Neue, Helvetica, sans-serif;">return false</tspan></text></g></g><g width="100" height="50.333" transform="scale(1,1) translate(258.292,306)"><g stroke="#9CB9D3" stroke-opacity="1" stroke-width="1" stroke-dasharray="none" width="100" height="50.333" transform="scale(1,1) translate(0,0)" fill="#9CB9D3" fill-opacity="1"><rect width="100" height="50.333"/></g><g width="95" height="45.33333333333333" transform="scale(1,1) translate(2.5,2.5)"><text width="95" height="15.624999046325684" transform="scale(1,1) translate(0,14.854167143503823)" xml:space="preserve"><tspan xml:space="preserve" text-rendering="optimizeSpeed" font-size="13.88888888888889" font-weight="normal" font-style="normal" fill="#333333" opacity="1" x="15.486" text-anchor="start" y="12.5" textLength="64.02783966064453" style="font-family: Arial, Helvetica Neue, Helvetica, sans-serif;">return true</tspan></text></g></g><g width="440.416" height="50.5" transform="scale(1,1) translate(610.292,260.167)"><g fill="#545454" stroke="#545454" stroke-opacity="1" transform="scale(1,1) translate(0,0)"><path fill="none" stroke-width="1" stroke-dasharray="none" d="M220.208,0 L220.208,0 M220.208,0 L220.208,0 M220.208,0 L220.208,0 M220.208,0 L0,50.5 M220.208,0 L440.416,50.5"/><g><g stroke-dasharray="none"><path d="M217.208,-3L223.208,-3L223.208,3L217.208,3z" stroke-width="0" fill="none"/></g></g></g><g stroke-width="0" stroke-dasharray="none" fill="#FFFFFF" opacity="1" width="24.649" height="17.625" transform="scale(1,1) translate(97.78,16.438)"><rect width="24.649" height="17.625"/></g><g width="22.64858627319336" height="90.5" transform="scale(1,1) translate(98.78,17.438)"><text width="22.64858627319336" height="15.624999046325684" transform="scale(1,1) translate(0,0)" xml:space="preserve"><tspan xml:space="preserve" text-rendering="optimizeSpeed" font-size="13.88888888888889" font-weight="normal" font-style="normal" fill="#333333" opacity="1" x="0" text-anchor="start" y="12.5" textLength="22.64858627319336" style="font-family: Arial, Helvetica Neue, Helvetica, sans-serif;">Yes</tspan></text></g><g stroke-width="0" stroke-dasharray="none" fill="#FFFFFF" opacity="1" width="19.748" height="17.625" transform="scale(1,1) translate(320.439,16.438)"><rect width="19.748" height="17.625"/></g><g width="17.747528076171875" height="90.5" transform="scale(1,1) translate(321.439,17.438)"><text width="17.747528076171875" height="15.624999046325684" transform="scale(1,1) translate(0,0)" xml:space="preserve"><tspan xml:space="preserve" text-rendering="optimizeSpeed" font-size="13.88888888888889" font-weight="normal" font-style="normal" fill="#333333" opacity="1" x="0" text-anchor="start" y="12.5" textLength="17.747528076171875" style="font-family: Arial, Helvetica Neue, Helvetica, sans-serif;">No</tspan></text></g></g><g width="176.766" height="50.5" transform="scale(1,1) translate(962.326,361)"><g fill="#545454" stroke="#545454" stroke-opacity="1" transform="scale(1,1) translate(0,0)"><path fill="none" stroke-width="1" stroke-dasharray="none" d="M88.383,0 L88.383,0 M88.383,0 L88.383,0 M88.383,0 L88.383,0 M88.383,0 L0,50.5 M88.383,0 L176.766,50.5"/><g><g stroke-dasharray="none"><path d="M83.383,-5L93.383,-5L93.383,5L83.383,5z" stroke-width="0" fill="none"/></g></g></g><g stroke-width="0" stroke-dasharray="none" fill="#FFFFFF" opacity="1" width="40.304" height="27" transform="scale(1,1) translate(24.039,11.75)"><rect width="40.304" height="27"/></g><g width="38.304359436035156" height="90.5" transform="scale(1,1) translate(25.039,12.75)"><text width="38.304359436035156" height="24.999998092651367" transform="scale(1,1) translate(0,0)" xml:space="preserve"><tspan xml:space="preserve" text-rendering="optimizeSpeed" font-size="22.22222222222222" font-weight="bold" font-style="normal" fill="#333333" opacity="1" x="0" text-anchor="start" y="19.792" textLength="38.304359436035156" style="font-family: Arial, Helvetica Neue, Helvetica, sans-serif;">Yes</tspan></text></g><g stroke-width="0" stroke-dasharray="none" fill="#FFFFFF" opacity="1" width="31.615" height="27" transform="scale(1,1) translate(116.767,11.75)"><rect width="31.615" height="27"/></g><g width="29.615177154541016" height="90.5" transform="scale(1,1) translate(117.767,12.75)"><text width="29.615177154541016" height="24.999998092651367" transform="scale(1,1) translate(0,0)" xml:space="preserve"><tspan xml:space="preserve" text-rendering="optimizeSpeed" font-size="22.22222222222222" font-weight="bold" font-style="normal" fill="#333333" opacity="1" x="0" text-anchor="start" y="19.792" textLength="29.615177154541016" style="font-family: Arial, Helvetica Neue, Helvetica, sans-serif;">No</tspan></text></g></g><g width="100" height="50.333" transform="scale(1,1) translate(1000.709,310.667)"><g stroke="#9CB9D3" stroke-opacity="1" stroke-width="1" stroke-dasharray="none" width="100" height="50.333" transform="scale(1,1) translate(0,0)" fill="#9CB9D3" fill-opacity="1"><rect width="100" height="50.333"/></g><g width="95" height="45.333333333333336" transform="scale(1,1) translate(2.5,2.5)"><text width="95" height="15.624999046325684" transform="scale(1,1) translate(0,14.854167143503826)" xml:space="preserve"><tspan xml:space="preserve" text-rendering="optimizeSpeed" font-size="13.88888888888889" font-weight="normal" font-style="normal" fill="#333333" opacity="1" x="12.406" text-anchor="start" y="12.5" textLength="70.18800354003906" style="font-family: Arial, Helvetica Neue, Helvetica, sans-serif;">s is empty?</tspan></text></g></g><g width="371.707" height="50.5" transform="scale(1,1) translate(424.439,361)"><g fill="#545454" stroke="#545454" stroke-opacity="1" transform="scale(1,1) translate(0,0)"><path fill="none" stroke-width="1" stroke-dasharray="none" d="M185.854,0 L185.854,0 M185.854,0 L185.854,0 M185.854,0 L185.854,0 M185.854,0 L0,50.5 M185.854,0 L371.707,50.5"/><g><g stroke-dasharray="none"><path d="M180.854,-5L190.854,-5L190.854,5L180.854,5z" stroke-width="0" fill="none"/></g></g></g><g stroke-width="0" stroke-dasharray="none" fill="#FFFFFF" opacity="1" width="40.304" height="27" transform="scale(1,1) translate(72.775,11.75)"><rect width="40.304" height="27"/></g><g width="38.304359436035156" height="90.5" transform="scale(1,1) translate(73.775,12.75)"><text width="38.304359436035156" height="24.999998092651367" transform="scale(1,1) translate(0,0)" xml:space="preserve"><tspan xml:space="preserve" text-rendering="optimizeSpeed" font-size="22.22222222222222" font-weight="bold" font-style="normal" fill="#333333" opacity="1" x="0" text-anchor="start" y="19.792" textLength="38.304359436035156" style="font-family: Arial, Helvetica Neue, Helvetica, sans-serif;">Yes</tspan></text></g><g stroke-width="0" stroke-dasharray="none" fill="#FFFFFF" opacity="1" width="31.615" height="27" transform="scale(1,1) translate(262.973,11.75)"><rect width="31.615" height="27"/></g><g width="29.615177154541016" height="90.5" transform="scale(1,1) translate(263.973,12.75)"><text width="29.615177154541016" height="24.999998092651367" transform="scale(1,1) translate(0,0)" xml:space="preserve"><tspan xml:space="preserve" text-rendering="optimizeSpeed" font-size="22.22222222222222" font-weight="bold" font-style="normal" fill="#333333" opacity="1" x="0" text-anchor="start" y="19.792" textLength="29.615177154541016" style="font-family: Arial, Helvetica Neue, Helvetica, sans-serif;">No</tspan></text></g></g><g width="100" height="50.333" transform="scale(1,1) translate(560.292,310.667)"><g stroke="#9CB9D3" stroke-opacity="1" stroke-width="1" stroke-dasharray="none" width="100" height="50.333" transform="scale(1,1) translate(0,0)" fill="#9CB9D3" fill-opacity="1"><rect width="100" height="50.333"/></g><g width="95" height="45.33333333333333" transform="scale(1,1) translate(2.5,2.5)"><text width="95" height="15.624999046325684" transform="scale(1,1) translate(0,14.854167143503823)" xml:space="preserve"><tspan xml:space="preserve" text-rendering="optimizeSpeed" font-size="13.88888888888889" font-weight="normal" font-style="normal" fill="#333333" opacity="1" x="14.754" text-anchor="start" y="12.5" textLength="65.49163818359375" style="font-family: Arial, Helvetica Neue, Helvetica, sans-serif;">p[1] == '*'?</tspan></text></g></g><g width="0" height="50" transform="scale(1,1) translate(308.292,356.333)"><g fill="#545454" stroke="#545454" stroke-opacity="1" transform="scale(1,1) translate(0,0)"><path fill="none" stroke-width="1" stroke-dasharray="none" d="M0,0"/></g></g><g width="0" height="50" transform="scale(1,1) translate(962.326,461.833)"><g fill="#545454" stroke="#545454" stroke-opacity="1" transform="scale(1,1) translate(0,0)"><path fill="none" stroke-width="1" stroke-dasharray="none" d="M0,0"/></g></g><g width="100" height="50.333" transform="scale(1,1) translate(912.326,411.5)"><g stroke="#9CB9D3" stroke-opacity="1" stroke-width="1" stroke-dasharray="none" width="100" height="50.333" transform="scale(1,1) translate(0,0)" fill="#9CB9D3" fill-opacity="1"><rect width="100" height="50.333"/></g><g width="95" height="45.33333333333333" transform="scale(1,1) translate(2.5,2.5)"><text width="95" height="15.624999046325684" transform="scale(1,1) translate(0,14.854167143503823)" xml:space="preserve"><tspan xml:space="preserve" text-rendering="optimizeSpeed" font-size="13.88888888888889" font-weight="normal" font-style="normal" fill="#333333" opacity="1" x="12.785" text-anchor="start" y="12.5" textLength="69.42900085449219" style="font-family: Arial, Helvetica Neue, Helvetica, sans-serif;">return false</tspan></text></g></g><g width="0" height="50" transform="scale(1,1) translate(1062.826,564.208)"><g fill="#545454" stroke="#545454" stroke-opacity="1" transform="scale(1,1) translate(0,0)"><path fill="none" stroke-width="1" stroke-dasharray="none" d="M0,0"/></g></g><g width="152.531" height="50.5" transform="scale(1,1) translate(1062.826,461.833)"><g fill="#545454" stroke="#545454" stroke-opacity="1" transform="scale(1,1) translate(0,0)"><path fill="none" stroke-width="1" stroke-dasharray="none" d="M76.266,0 L76.266,0 M76.266,0 L76.266,0 M76.266,0 L76.266,0 M76.266,0 L0,50.5 M76.266,0 L152.531,50.5"/><g><g stroke-dasharray="none"><path d="M71.266,-5L81.266,-5L81.266,5L71.266,5z" stroke-width="0" fill="none"/></g></g></g><g stroke-width="0" stroke-dasharray="none" fill="#FFFFFF" opacity="1" width="40.304" height="27" transform="scale(1,1) translate(17.981,11.75)"><rect width="40.304" height="27"/></g><g width="38.304359436035156" height="90.5" transform="scale(1,1) translate(18.981,12.75)"><text width="38.304359436035156" height="24.999998092651367" transform="scale(1,1) translate(0,0)" xml:space="preserve"><tspan xml:space="preserve" text-rendering="optimizeSpeed" font-size="22.22222222222222" font-weight="bold" font-style="normal" fill="#333333" opacity="1" x="0" text-anchor="start" y="19.792" textLength="38.304359436035156" style="font-family: Arial, Helvetica Neue, Helvetica, sans-serif;">Yes</tspan></text></g><g stroke-width="0" stroke-dasharray="none" fill="#FFFFFF" opacity="1" width="31.615" height="27" transform="scale(1,1) translate(98.591,11.75)"><rect width="31.615" height="27"/></g><g width="29.615177154541016" height="90.5" transform="scale(1,1) translate(99.591,12.75)"><text width="29.615177154541016" height="24.999998092651367" transform="scale(1,1) translate(0,0)" xml:space="preserve"><tspan xml:space="preserve" text-rendering="optimizeSpeed" font-size="22.22222222222222" font-weight="bold" font-style="normal" fill="#333333" opacity="1" x="0" text-anchor="start" y="19.792" textLength="29.615177154541016" style="font-family: Arial, Helvetica Neue, Helvetica, sans-serif;">No</tspan></text></g></g><g width="100" height="50.333" transform="scale(1,1) translate(1089.092,411.5)"><g stroke="#9CB9D3" stroke-opacity="1" stroke-width="1" stroke-dasharray="none" width="100" height="50.333" transform="scale(1,1) translate(0,0)" fill="#9CB9D3" fill-opacity="1"><rect width="100" height="50.333"/></g><g width="95" height="45.33333333333333" transform="scale(1,1) translate(2.5,2.5)"><text width="95" height="31.249998092651367" transform="scale(1,1) translate(0,7.041667620340981)" xml:space="preserve"><tspan xml:space="preserve" text-rendering="optimizeSpeed" font-size="13.88888888888889" font-weight="normal" font-style="normal" fill="#333333" opacity="1" x="5.317" text-anchor="start" y="12.5" textLength="80.50917053222656" style="font-family: Arial, Helvetica Neue, Helvetica, sans-serif;">s[0] == p[0] ||</tspan><tspan xml:space="preserve" text-rendering="optimizeSpeed" font-size="13.88888888888889" font-weight="normal" font-style="normal" fill="#333333" opacity="1" x="15.527" text-anchor="start" y="28.125" textLength="63.946502685546875" style="font-family: Arial, Helvetica Neue, Helvetica, sans-serif;">p[0] == '.'?</tspan></text></g></g><g width="0" height="50" transform="scale(1,1) translate(329.997,562.667)"><g fill="#545454" stroke="#545454" stroke-opacity="1" transform="scale(1,1) translate(0,0)"><path fill="none" stroke-width="1" stroke-dasharray="none" d="M0,0"/></g></g><g width="188.883" height="50.5" transform="scale(1,1) translate(329.997,461.833)"><g fill="#545454" stroke="#545454" stroke-opacity="1" transform="scale(1,1) translate(0,0)"><path fill="none" stroke-width="1" stroke-dasharray="none" d="M94.441,0 L94.441,0 M94.441,0 L94.441,0 M94.441,0 L94.441,0 M94.441,0 L0,50.5 M94.441,0 L188.883,50.5"/><g><g stroke-dasharray="none"><path d="M89.441,-5L99.441,-5L99.441,5L89.441,5z" stroke-width="0" fill="none"/></g></g></g><g stroke-width="0" stroke-dasharray="none" fill="#FFFFFF" opacity="1" width="40.304" height="27" transform="scale(1,1) translate(27.069,11.75)"><rect width="40.304" height="27"/></g><g width="38.304359436035156" height="90.5" transform="scale(1,1) translate(28.069,12.75)"><text width="38.304359436035156" height="24.999998092651367" transform="scale(1,1) translate(0,0)" xml:space="preserve"><tspan xml:space="preserve" text-rendering="optimizeSpeed" font-size="22.22222222222222" font-weight="bold" font-style="normal" fill="#333333" opacity="1" x="0" text-anchor="start" y="19.792" textLength="38.304359436035156" style="font-family: Arial, Helvetica Neue, Helvetica, sans-serif;">Yes</tspan></text></g><g stroke-width="0" stroke-dasharray="none" fill="#FFFFFF" opacity="1" width="31.615" height="27" transform="scale(1,1) translate(125.855,11.75)"><rect width="31.615" height="27"/></g><g width="29.615177154541016" height="90.5" transform="scale(1,1) translate(126.855,12.75)"><text width="29.615177154541016" height="24.999998092651367" transform="scale(1,1) translate(0,0)" xml:space="preserve"><tspan xml:space="preserve" text-rendering="optimizeSpeed" font-size="22.22222222222222" font-weight="bold" font-style="normal" fill="#333333" opacity="1" x="0" text-anchor="start" y="19.792" textLength="29.615177154541016" style="font-family: Arial, Helvetica Neue, Helvetica, sans-serif;">No</tspan></text></g></g><g width="100" height="50.333" transform="scale(1,1) translate(374.439,411.5)"><g stroke="#9CB9D3" stroke-opacity="1" stroke-width="1" stroke-dasharray="none" width="100" height="50.333" transform="scale(1,1) translate(0,0)" fill="#9CB9D3" fill-opacity="1"><rect width="100" height="50.333"/></g><g width="95" height="45.33333333333333" transform="scale(1,1) translate(2.5,2.5)"><text width="95" height="31.249998092651367" transform="scale(1,1) translate(0,7.041667620340981)" xml:space="preserve"><tspan xml:space="preserve" text-rendering="optimizeSpeed" font-size="13.88888888888889" font-weight="normal" font-style="normal" fill="#333333" opacity="1" x="13.955" text-anchor="start" y="12.5" textLength="63.23494338989258" style="font-family: Arial, Helvetica Neue, Helvetica, sans-serif;">isMatch(s,</tspan><tspan xml:space="preserve" text-rendering="optimizeSpeed" font-size="13.88888888888889" font-weight="normal" font-style="normal" fill="#333333" opacity="1" x="7.001" text-anchor="start" y="28.125" textLength="80.99712371826172" style="font-family: Arial, Helvetica Neue, Helvetica, sans-serif;">p[2:]) is true?</tspan></text></g></g><g width="0" height="50" transform="scale(1,1) translate(707.763,562.667)"><g fill="#545454" stroke="#545454" stroke-opacity="1" transform="scale(1,1) translate(0,0)"><path fill="none" stroke-width="1" stroke-dasharray="none" d="M0,0"/></g></g><g width="176.766" height="50.5" transform="scale(1,1) translate(707.763,461.833)"><g fill="#545454" stroke="#545454" stroke-opacity="1" transform="scale(1,1) translate(0,0)"><path fill="none" stroke-width="1" stroke-dasharray="none" d="M88.383,0 L88.383,0 M88.383,0 L88.383,0 M88.383,0 L88.383,0 M88.383,0 L0,50.5 M88.383,0 L176.766,50.5"/><g><g stroke-dasharray="none"><path d="M83.383,-5L93.383,-5L93.383,5L83.383,5z" stroke-width="0" fill="none"/></g></g></g><g stroke-width="0" stroke-dasharray="none" fill="#FFFFFF" opacity="1" width="40.304" height="27" transform="scale(1,1) translate(24.039,11.75)"><rect width="40.304" height="27"/></g><g width="38.304359436035156" height="90.5" transform="scale(1,1) translate(25.039,12.75)"><text width="38.304359436035156" height="24.999998092651367" transform="scale(1,1) translate(0,0)" xml:space="preserve"><tspan xml:space="preserve" text-rendering="optimizeSpeed" font-size="22.22222222222222" font-weight="bold" font-style="normal" fill="#333333" opacity="1" x="0" text-anchor="start" y="19.792" textLength="38.304359436035156" style="font-family: Arial, Helvetica Neue, Helvetica, sans-serif;">Yes</tspan></text></g><g stroke-width="0" stroke-dasharray="none" fill="#FFFFFF" opacity="1" width="31.615" height="27" transform="scale(1,1) translate(116.767,11.75)"><rect width="31.615" height="27"/></g><g width="29.615177154541016" height="90.5" transform="scale(1,1) translate(117.767,12.75)"><text width="29.615177154541016" height="24.999998092651367" transform="scale(1,1) translate(0,0)" xml:space="preserve"><tspan xml:space="preserve" text-rendering="optimizeSpeed" font-size="22.22222222222222" font-weight="bold" font-style="normal" fill="#333333" opacity="1" x="0" text-anchor="start" y="19.792" textLength="29.615177154541016" style="font-family: Arial, Helvetica Neue, Helvetica, sans-serif;">No</tspan></text></g></g><g width="100" height="50.333" transform="scale(1,1) translate(746.146,411.5)"><g stroke="#9CB9D3" stroke-opacity="1" stroke-width="1" stroke-dasharray="none" width="100" height="50.333" transform="scale(1,1) translate(0,0)" fill="#9CB9D3" fill-opacity="1"><rect width="100" height="50.333"/></g><g width="95" height="45.33333333333333" transform="scale(1,1) translate(2.5,2.5)"><text width="95" height="15.624999046325684" transform="scale(1,1) translate(0,14.854167143503823)" xml:space="preserve"><tspan xml:space="preserve" text-rendering="optimizeSpeed" font-size="13.88888888888889" font-weight="normal" font-style="normal" fill="#333333" opacity="1" x="12.406" text-anchor="start" y="12.5" textLength="70.18800354003906" style="font-family: Arial, Helvetica Neue, Helvetica, sans-serif;">s is empty?</tspan></text></g></g><g width="100" height="50.333" transform="scale(1,1) translate(279.997,512.333)"><g stroke="#9CB9D3" stroke-opacity="1" stroke-width="1" stroke-dasharray="none" width="100" height="50.333" transform="scale(1,1) translate(0,0)" fill="#9CB9D3" fill-opacity="1"><rect width="100" height="50.333"/></g><g width="95" height="45.33333333333333" transform="scale(1,1) translate(2.5,2.5)"><text width="95" height="15.624999046325684" transform="scale(1,1) translate(0,14.854167143503823)" xml:space="preserve"><tspan xml:space="preserve" text-rendering="optimizeSpeed" font-size="13.88888888888889" font-weight="normal" font-style="normal" fill="#333333" opacity="1" x="15.486" text-anchor="start" y="12.5" textLength="64.02783966064453" style="font-family: Arial, Helvetica Neue, Helvetica, sans-serif;">return true</tspan></text></g></g><g width="0" height="50" transform="scale(1,1) translate(430.497,663.5)"><g fill="#545454" stroke="#545454" stroke-opacity="1" transform="scale(1,1) translate(0,0)"><path fill="none" stroke-width="1" stroke-dasharray="none" d="M0,0"/></g></g><g width="176.766" height="50.5" transform="scale(1,1) translate(430.497,562.667)"><g fill="#545454" stroke="#545454" stroke-opacity="1" transform="scale(1,1) translate(0,0)"><path fill="none" stroke-width="1" stroke-dasharray="none" d="M88.383,0 L88.383,0 M88.383,0 L88.383,0 M88.383,0 L88.383,0 M88.383,0 L0,50.5 M88.383,0 L176.766,50.5"/><g><g stroke-dasharray="none"><path d="M83.383,-5L93.383,-5L93.383,5L83.383,5z" stroke-width="0" fill="none"/></g></g></g><g stroke-width="0" stroke-dasharray="none" fill="#FFFFFF" opacity="1" width="40.304" height="27" transform="scale(1,1) translate(24.039,11.75)"><rect width="40.304" height="27"/></g><g width="38.304359436035156" height="90.5" transform="scale(1,1) translate(25.039,12.75)"><text width="38.304359436035156" height="24.999998092651367" transform="scale(1,1) translate(0,0)" xml:space="preserve"><tspan xml:space="preserve" text-rendering="optimizeSpeed" font-size="22.22222222222222" font-weight="bold" font-style="normal" fill="#333333" opacity="1" x="0" text-anchor="start" y="19.792" textLength="38.304359436035156" style="font-family: Arial, Helvetica Neue, Helvetica, sans-serif;">Yes</tspan></text></g><g stroke-width="0" stroke-dasharray="none" fill="#FFFFFF" opacity="1" width="31.615" height="27" transform="scale(1,1) translate(116.767,11.75)"><rect width="31.615" height="27"/></g><g width="29.615177154541016" height="90.5" transform="scale(1,1) translate(117.767,12.75)"><text width="29.615177154541016" height="24.999998092651367" transform="scale(1,1) translate(0,0)" xml:space="preserve"><tspan xml:space="preserve" text-rendering="optimizeSpeed" font-size="22.22222222222222" font-weight="bold" font-style="normal" fill="#333333" opacity="1" x="0" text-anchor="start" y="19.792" textLength="29.615177154541016" style="font-family: Arial, Helvetica Neue, Helvetica, sans-serif;">No</tspan></text></g></g><g width="100" height="50.333" transform="scale(1,1) translate(468.88,512.333)"><g stroke="#9CB9D3" stroke-opacity="1" stroke-width="1" stroke-dasharray="none" width="100" height="50.333" transform="scale(1,1) translate(0,0)" fill="#9CB9D3" fill-opacity="1"><rect width="100" height="50.333"/></g><g width="95" height="45.33333333333333" transform="scale(1,1) translate(2.5,2.5)"><text width="95" height="15.624999046325684" transform="scale(1,1) translate(0,14.854167143503823)" xml:space="preserve"><tspan xml:space="preserve" text-rendering="optimizeSpeed" font-size="13.88888888888889" font-weight="normal" font-style="normal" fill="#333333" opacity="1" x="12.406" text-anchor="start" y="12.5" textLength="70.18800354003906" style="font-family: Arial, Helvetica Neue, Helvetica, sans-serif;">s is empty?</tspan></text></g></g><g width="100" height="50.333" transform="scale(1,1) translate(380.497,613.167)"><g stroke="#9CB9D3" stroke-opacity="1" stroke-width="1" stroke-dasharray="none" width="100" height="50.333" transform="scale(1,1) translate(0,0)" fill="#9CB9D3" fill-opacity="1"><rect width="100" height="50.333"/></g><g width="95" height="45.33333333333333" transform="scale(1,1) translate(2.5,2.5)"><text width="95" height="15.624999046325684" transform="scale(1,1) translate(0,14.854167143503823)" xml:space="preserve"><tspan xml:space="preserve" text-rendering="optimizeSpeed" font-size="13.88888888888889" font-weight="normal" font-style="normal" fill="#333333" opacity="1" x="12.785" text-anchor="start" y="12.5" textLength="69.42900085449219" style="font-family: Arial, Helvetica Neue, Helvetica, sans-serif;">return false</tspan></text></g></g><g width="0" height="50" transform="scale(1,1) translate(530.997,765.875)"><g fill="#545454" stroke="#545454" stroke-opacity="1" transform="scale(1,1) translate(0,0)"><path fill="none" stroke-width="1" stroke-dasharray="none" d="M0,0"/></g></g><g width="152.531" height="50.5" transform="scale(1,1) translate(530.997,663.5)"><g fill="#545454" stroke="#545454" stroke-opacity="1" transform="scale(1,1) translate(0,0)"><path fill="none" stroke-width="1" stroke-dasharray="none" d="M76.266,0 L76.266,0 M76.266,0 L76.266,0 M76.266,0 L76.266,0 M76.266,0 L0,50.5 M76.266,0 L152.531,50.5"/><g><g stroke-dasharray="none"><path d="M71.266,-5L81.266,-5L81.266,5L71.266,5z" stroke-width="0" fill="none"/></g></g></g><g stroke-width="0" stroke-dasharray="none" fill="#FFFFFF" opacity="1" width="40.304" height="27" transform="scale(1,1) translate(17.981,11.75)"><rect width="40.304" height="27"/></g><g width="38.304359436035156" height="90.5" transform="scale(1,1) translate(18.981,12.75)"><text width="38.304359436035156" height="24.999998092651367" transform="scale(1,1) translate(0,0)" xml:space="preserve"><tspan xml:space="preserve" text-rendering="optimizeSpeed" font-size="22.22222222222222" font-weight="bold" font-style="normal" fill="#333333" opacity="1" x="0" text-anchor="start" y="19.792" textLength="38.304359436035156" style="font-family: Arial, Helvetica Neue, Helvetica, sans-serif;">Yes</tspan></text></g><g stroke-width="0" stroke-dasharray="none" fill="#FFFFFF" opacity="1" width="31.615" height="27" transform="scale(1,1) translate(98.591,11.75)"><rect width="31.615" height="27"/></g><g width="29.615177154541016" height="90.5" transform="scale(1,1) translate(99.591,12.75)"><text width="29.615177154541016" height="24.999998092651367" transform="scale(1,1) translate(0,0)" xml:space="preserve"><tspan xml:space="preserve" text-rendering="optimizeSpeed" font-size="22.22222222222222" font-weight="bold" font-style="normal" fill="#333333" opacity="1" x="0" text-anchor="start" y="19.792" textLength="29.615177154541016" style="font-family: Arial, Helvetica Neue, Helvetica, sans-serif;">No</tspan></text></g></g><g width="100" height="50.333" transform="scale(1,1) translate(557.263,613.167)"><g stroke="#9CB9D3" stroke-opacity="1" stroke-width="1" stroke-dasharray="none" width="100" height="50.333" transform="scale(1,1) translate(0,0)" fill="#9CB9D3" fill-opacity="1"><rect width="100" height="50.333"/></g><g width="95" height="45.33333333333333" transform="scale(1,1) translate(2.5,2.5)"><text width="95" height="31.249998092651367" transform="scale(1,1) translate(0,7.041667620340981)" xml:space="preserve"><tspan xml:space="preserve" text-rendering="optimizeSpeed" font-size="13.88888888888889" font-weight="normal" font-style="normal" fill="#333333" opacity="1" x="5.317" text-anchor="start" y="12.5" textLength="80.50917053222656" style="font-family: Arial, Helvetica Neue, Helvetica, sans-serif;">s[0] == p[0] ||</tspan><tspan xml:space="preserve" text-rendering="optimizeSpeed" font-size="13.88888888888889" font-weight="normal" font-style="normal" fill="#333333" opacity="1" x="15.527" text-anchor="start" y="28.125" textLength="63.946502685546875" style="font-family: Arial, Helvetica Neue, Helvetica, sans-serif;">p[0] == '.'?</tspan></text></g></g><g width="103.063" height="51.875" transform="scale(1,1) translate(479.466,714)"><g stroke="#9CB9D3" stroke-opacity="1" stroke-width="1" stroke-dasharray="none" width="103.063" height="51.875" transform="scale(1,1) translate(0,0)" fill="#9CB9D3" fill-opacity="1"><rect width="103.063" height="51.875"/></g><g width="98.06290822313322" height="46.87499713897705" transform="scale(1,1) translate(2.5,2.5)"><text width="98.06290822313322" height="46.87499713897705" transform="scale(1,1) translate(0,0)" xml:space="preserve"><tspan xml:space="preserve" text-rendering="optimizeSpeed" font-size="13.88888888888889" font-weight="normal" font-style="normal" fill="#333333" opacity="1" x="28.975" text-anchor="start" y="12.5" textLength="36.25624084472656" style="font-family: Arial, Helvetica Neue, Helvetica, sans-serif;">return</tspan><tspan xml:space="preserve" text-rendering="optimizeSpeed" font-size="13.88888888888889" font-weight="normal" font-style="normal" fill="#333333" opacity="1" x="5.842" text-anchor="start" y="28.125" textLength="82.52190780639648" style="font-family: Arial, Helvetica Neue, Helvetica, sans-serif;">isMatch(s[1:],</tspan><tspan xml:space="preserve" text-rendering="optimizeSpeed" font-size="13.88888888888889" font-weight="normal" font-style="normal" fill="#333333" opacity="1" x="42.861" text-anchor="start" y="43.75" textLength="12.340682983398438" style="font-family: Arial, Helvetica Neue, Helvetica, sans-serif;">p)</tspan></text></g></g><g width="0" height="50" transform="scale(1,1) translate(683.529,764.333)"><g fill="#545454" stroke="#545454" stroke-opacity="1" transform="scale(1,1) translate(0,0)"><path fill="none" stroke-width="1" stroke-dasharray="none" d="M0,0"/></g></g><g width="100" height="50.333" transform="scale(1,1) translate(633.529,714)"><g stroke="#9CB9D3" stroke-opacity="1" stroke-width="1" stroke-dasharray="none" width="100" height="50.333" transform="scale(1,1) translate(0,0)" fill="#9CB9D3" fill-opacity="1"><rect width="100" height="50.333"/></g><g width="95" height="45.33333333333333" transform="scale(1,1) translate(2.5,2.5)"><text width="95" height="15.624999046325684" transform="scale(1,1) translate(0,14.854167143503823)" xml:space="preserve"><tspan xml:space="preserve" text-rendering="optimizeSpeed" font-size="13.88888888888889" font-weight="normal" font-style="normal" fill="#333333" opacity="1" x="12.785" text-anchor="start" y="12.5" textLength="69.42900085449219" style="font-family: Arial, Helvetica Neue, Helvetica, sans-serif;">return false</tspan></text></g></g><g width="100" height="50.333" transform="scale(1,1) translate(657.763,512.333)"><g stroke="#9CB9D3" stroke-opacity="1" stroke-width="1" stroke-dasharray="none" width="100" height="50.333" transform="scale(1,1) translate(0,0)" fill="#9CB9D3" fill-opacity="1"><rect width="100" height="50.333"/></g><g width="95" height="45.33333333333333" transform="scale(1,1) translate(2.5,2.5)"><text width="95" height="15.624999046325684" transform="scale(1,1) translate(0,14.854167143503823)" xml:space="preserve"><tspan xml:space="preserve" text-rendering="optimizeSpeed" font-size="13.88888888888889" font-weight="normal" font-style="normal" fill="#333333" opacity="1" x="12.785" text-anchor="start" y="12.5" textLength="69.42900085449219" style="font-family: Arial, Helvetica Neue, Helvetica, sans-serif;">return false</tspan></text></g></g><g width="0" height="50" transform="scale(1,1) translate(808.263,665.042)"><g fill="#545454" stroke="#545454" stroke-opacity="1" transform="scale(1,1) translate(0,0)"><path fill="none" stroke-width="1" stroke-dasharray="none" d="M0,0"/></g></g><g width="152.531" height="50.5" transform="scale(1,1) translate(808.263,562.667)"><g fill="#545454" stroke="#545454" stroke-opacity="1" transform="scale(1,1) translate(0,0)"><path fill="none" stroke-width="1" stroke-dasharray="none" d="M76.266,0 L76.266,0 M76.266,0 L76.266,0 M76.266,0 L76.266,0 M76.266,0 L0,50.5 M76.266,0 L152.531,50.5"/><g><g stroke-dasharray="none"><path d="M71.266,-5L81.266,-5L81.266,5L71.266,5z" stroke-width="0" fill="none"/></g></g></g><g stroke-width="0" stroke-dasharray="none" fill="#FFFFFF" opacity="1" width="40.304" height="27" transform="scale(1,1) translate(17.981,11.75)"><rect width="40.304" height="27"/></g><g width="38.304359436035156" height="90.5" transform="scale(1,1) translate(18.981,12.75)"><text width="38.304359436035156" height="24.999998092651367" transform="scale(1,1) translate(0,0)" xml:space="preserve"><tspan xml:space="preserve" text-rendering="optimizeSpeed" font-size="22.22222222222222" font-weight="bold" font-style="normal" fill="#333333" opacity="1" x="0" text-anchor="start" y="19.792" textLength="38.304359436035156" style="font-family: Arial, Helvetica Neue, Helvetica, sans-serif;">Yes</tspan></text></g><g stroke-width="0" stroke-dasharray="none" fill="#FFFFFF" opacity="1" width="31.615" height="27" transform="scale(1,1) translate(98.591,11.75)"><rect width="31.615" height="27"/></g><g width="29.615177154541016" height="90.5" transform="scale(1,1) translate(99.591,12.75)"><text width="29.615177154541016" height="24.999998092651367" transform="scale(1,1) translate(0,0)" xml:space="preserve"><tspan xml:space="preserve" text-rendering="optimizeSpeed" font-size="22.22222222222222" font-weight="bold" font-style="normal" fill="#333333" opacity="1" x="0" text-anchor="start" y="19.792" textLength="29.615177154541016" style="font-family: Arial, Helvetica Neue, Helvetica, sans-serif;">No</tspan></text></g></g><g width="100" height="50.333" transform="scale(1,1) translate(834.529,512.333)"><g stroke="#9CB9D3" stroke-opacity="1" stroke-width="1" stroke-dasharray="none" width="100" height="50.333" transform="scale(1,1) translate(0,0)" fill="#9CB9D3" fill-opacity="1"><rect width="100" height="50.333"/></g><g width="95" height="45.33333333333333" transform="scale(1,1) translate(2.5,2.5)"><text width="95" height="31.249998092651367" transform="scale(1,1) translate(0,7.041667620340981)" xml:space="preserve"><tspan xml:space="preserve" text-rendering="optimizeSpeed" font-size="13.88888888888889" font-weight="normal" font-style="normal" fill="#333333" opacity="1" x="5.317" text-anchor="start" y="12.5" textLength="80.50917053222656" style="font-family: Arial, Helvetica Neue, Helvetica, sans-serif;">s[0] == p[0] ||</tspan><tspan xml:space="preserve" text-rendering="optimizeSpeed" font-size="13.88888888888889" font-weight="normal" font-style="normal" fill="#333333" opacity="1" x="15.527" text-anchor="start" y="28.125" textLength="63.946502685546875" style="font-family: Arial, Helvetica Neue, Helvetica, sans-serif;">p[0] == '.'?</tspan></text></g></g><g width="103.063" height="51.875" transform="scale(1,1) translate(756.732,613.167)"><g stroke="#9CB9D3" stroke-opacity="1" stroke-width="1" stroke-dasharray="none" width="103.063" height="51.875" transform="scale(1,1) translate(0,0)" fill="#9CB9D3" fill-opacity="1"><rect width="103.063" height="51.875"/></g><g width="98.06290822313322" height="46.87499713897705" transform="scale(1,1) translate(2.5,2.5)"><text width="98.06290822313322" height="46.87499713897705" transform="scale(1,1) translate(0,0)" xml:space="preserve"><tspan xml:space="preserve" text-rendering="optimizeSpeed" font-size="13.88888888888889" font-weight="normal" font-style="normal" fill="#333333" opacity="1" x="28.975" text-anchor="start" y="12.5" textLength="36.25624084472656" style="font-family: Arial, Helvetica Neue, Helvetica, sans-serif;">return</tspan><tspan xml:space="preserve" text-rendering="optimizeSpeed" font-size="13.88888888888889" font-weight="normal" font-style="normal" fill="#333333" opacity="1" x="5.842" text-anchor="start" y="28.125" textLength="82.52190780639648" style="font-family: Arial, Helvetica Neue, Helvetica, sans-serif;">isMatch(s[1:],</tspan><tspan xml:space="preserve" text-rendering="optimizeSpeed" font-size="13.88888888888889" font-weight="normal" font-style="normal" fill="#333333" opacity="1" x="33.218" text-anchor="start" y="43.75" textLength="31.627639770507812" style="font-family: Arial, Helvetica Neue, Helvetica, sans-serif;">p[1:])</tspan></text></g></g><g width="0" height="50" transform="scale(1,1) translate(960.795,663.5)"><g fill="#545454" stroke="#545454" stroke-opacity="1" transform="scale(1,1) translate(0,0)"><path fill="none" stroke-width="1" stroke-dasharray="none" d="M0,0"/></g></g><g width="100" height="50.333" transform="scale(1,1) translate(910.795,613.167)"><g stroke="#9CB9D3" stroke-opacity="1" stroke-width="1" stroke-dasharray="none" width="100" height="50.333" transform="scale(1,1) translate(0,0)" fill="#9CB9D3" fill-opacity="1"><rect width="100" height="50.333"/></g><g width="95" height="45.33333333333333" transform="scale(1,1) translate(2.5,2.5)"><text width="95" height="15.624999046325684" transform="scale(1,1) translate(0,14.854167143503823)" xml:space="preserve"><tspan xml:space="preserve" text-rendering="optimizeSpeed" font-size="13.88888888888889" font-weight="normal" font-style="normal" fill="#333333" opacity="1" x="12.785" text-anchor="start" y="12.5" textLength="69.42900085449219" style="font-family: Arial, Helvetica Neue, Helvetica, sans-serif;">return false</tspan></text></g></g><g width="103.063" height="51.875" transform="scale(1,1) translate(1011.295,512.333)"><g stroke="#9CB9D3" stroke-opacity="1" stroke-width="1" stroke-dasharray="none" width="103.063" height="51.875" transform="scale(1,1) translate(0,0)" fill="#9CB9D3" fill-opacity="1"><rect width="103.063" height="51.875"/></g><g width="98.06290822313322" height="46.87499713897705" transform="scale(1,1) translate(2.5,2.5)"><text width="98.06290822313322" height="46.87499713897705" transform="scale(1,1) translate(0,0)" xml:space="preserve"><tspan xml:space="preserve" text-rendering="optimizeSpeed" font-size="13.88888888888889" font-weight="normal" font-style="normal" fill="#333333" opacity="1" x="28.975" text-anchor="start" y="12.5" textLength="36.25624084472656" style="font-family: Arial, Helvetica Neue, Helvetica, sans-serif;">return</tspan><tspan xml:space="preserve" text-rendering="optimizeSpeed" font-size="13.88888888888889" font-weight="normal" font-style="normal" fill="#333333" opacity="1" x="5.842" text-anchor="start" y="28.125" textLength="82.52190780639648" style="font-family: Arial, Helvetica Neue, Helvetica, sans-serif;">isMatch(s[1:],</tspan><tspan xml:space="preserve" text-rendering="optimizeSpeed" font-size="13.88888888888889" font-weight="normal" font-style="normal" fill="#333333" opacity="1" x="33.218" text-anchor="start" y="43.75" textLength="31.627639770507812" style="font-family: Arial, Helvetica Neue, Helvetica, sans-serif;">p[1:])</tspan></text></g></g><g width="0" height="50" transform="scale(1,1) translate(1215.357,562.667)"><g fill="#545454" stroke="#545454" stroke-opacity="1" transform="scale(1,1) translate(0,0)"><path fill="none" stroke-width="1" stroke-dasharray="none" d="M0,0"/></g></g><g width="100" height="50.333" transform="scale(1,1) translate(1165.357,512.333)"><g stroke="#9CB9D3" stroke-opacity="1" stroke-width="1" stroke-dasharray="none" width="100" height="50.333" transform="scale(1,1) translate(0,0)" fill="#9CB9D3" fill-opacity="1"><rect width="100" height="50.333"/></g><g width="95" height="45.33333333333333" transform="scale(1,1) translate(2.5,2.5)"><text width="95" height="15.624999046325684" transform="scale(1,1) translate(0,14.854167143503823)" xml:space="preserve"><tspan xml:space="preserve" text-rendering="optimizeSpeed" font-size="13.88888888888889" font-weight="normal" font-style="normal" fill="#333333" opacity="1" x="12.785" text-anchor="start" y="12.5" textLength="69.42900085449219" style="font-family: Arial, Helvetica Neue, Helvetica, sans-serif;">return false</tspan></text></g></g></g></svg>